<svg xmlns="http://www.w3.org/2000/svg" aria-hidden="true" style="position:absolute;width:0;height:0;overflow:hidden">
    <defs>
        <symbol id="favorite" viewBox="0 0 36 32">
            <path stroke-linecap="round" stroke-linejoin="round" stroke-width="3"
                d="M31.26 4.915a8.244 8.244 0 0 0-5.835-2.417 8.264 8.264 0 0 0-5.835 2.417L18 6.505l-1.59-1.59a8.25 8.25 0 0 0-11.67 0 8.25 8.25 0 0 0 0 11.67L18 29.845l13.26-13.26a8.244 8.244 0 0 0 2.417-5.835 8.264 8.264 0 0 0-2.417-5.835z" />
        </symbol>
        <symbol id="close" viewBox="0 0 32 32">
            <path stroke-linecap="round" stroke-linejoin="round" stroke-width="2.4" d="M24 8 8 24M8 8l16 16" />
        </symbol>
    </defs>
</svg>